<svg version="1.1" xmlns="http://www.w3.org/2000/svg" xmlns:xlink="http://www.w3.org/1999/xlink" viewBox="0 0 1000 1000" enable-background="new 0 0 1000 1000" xml:space="preserve">
<g transform="translate(0.000000,503.000000) scale(0.100000,-0.100000)"><path d="M4897.1,4881.7l-58.5-58.5v-282.9c0-318,5.8-306.3-150.2-306.3c-48.8,0-181.4-13.7-296.5-31.2C2497.6,3921.9,1032.5,2413.9,810.1,517.7c-15.6-138.5-29.3-269.2-29.3-286.8c0-31.2-25.4-35.1-275.1-35.1C170.2,195.8,100,166.6,100,30c0-136.6,70.2-165.8,405.8-165.8c249.7,0,275.1-3.9,275.1-35.1c0-17.6,13.7-148.3,29.3-286.8c144.4-1238.8,821.3-2335.1,1872.8-3035.5c364.8-243.9,913-479.9,1357.8-583.3c212.6-50.7,526.7-97.5,645.7-97.5c158,0,152.2,11.7,152.2-306.3v-282.9l58.5-58.5c50.7-48.8,70.2-56.6,122.9-46.8c126.8,25.4,140.5,58.5,146.3,382.4c5.9,282.9,7.8,292.6,48.8,300.4c23.4,3.9,144.4,17.5,267.3,29.3c458.4,46.8,934.5,185.3,1375.3,401.9c1365.6,673,2264.9,2019.1,2356.6,3531l3.9,78l296.5,9.8c275.1,9.8,300.4,13.7,341.4,52.7c58.5,58.5,58.5,167.8,0,226.3c-41,39-66.3,42.9-341.4,52.7l-296.5,9.8l-3.9,78C9120.7,1815,8188.1,3190.3,6797.2,3847.8C6389.5,4039,5814,4197,5423.8,4224.3c-279,19.5-249.7-15.6-257.5,321.9c-5.8,323.8-19.5,357-146.3,382.4C4967.3,4938.3,4947.8,4930.5,4897.1,4881.7z M4838.6,3241.1v-682.8l-111.2-11.7c-62.4-5.8-214.6-37.1-337.5-66.3c-835-204.8-1511.9-827.1-1783.1-1640.6c-64.4-191.2-128.8-491.6-128.8-597v-46.8h-682.8h-682.8v56.6c0,126.8,62.4,517,115.1,725.7c417.5,1650.4,1863,2840.4,3568.1,2941.9l42.9,2V3241.1z M5453.1,3892.6c1443.6-169.7,2686.3-1145.1,3195.4-2508.8c121-323.8,202.9-698.4,236.1-1074.9l9.7-113.1h-680.8h-680.8l-9.8,64.4c-41,279-62.4,380.4-120.9,557.9c-255.6,774.5-860.3,1373.4-1634.8,1619.2c-152.2,48.8-491.6,119-581.4,119c-9.7,0-15.6,308.2-15.6,682.8c0,376.5,5.8,682.8,15.6,682.8C5193.6,3921.9,5314.6,3908.3,5453.1,3892.6z M4838.6,1210.3V195.8H3824.1H2809.7v56.6c0,31.2,13.7,122.9,29.3,200.9c87.8,421.4,273.1,776.4,563.8,1084.7c234.1,247.8,550.1,456.5,860.3,567.7c126.8,46.8,435,115.1,522.8,117.1l52.7,2V1210.3z M5531.1,2166.2c801.8-204.8,1424.1-833,1607.5-1623.1c21.5-87.8,44.9-202.9,52.7-253.6l11.7-93.6H6186.6H5170.2v1016.4v1016.4l111.2-13.7C5343.8,2207.1,5455,2185.7,5531.1,2166.2z M2478.1-182.6c0-189.2,134.6-673,255.6-913c214.6-431.1,579.4-815.4,1012.5-1069.1c267.3-156.1,657.4-282.9,1000.8-323.8l91.7-9.8v-682.8v-682.8l-101.4,11.7c-497.5,54.6-665.2,89.7-1006.6,208.7C2485.9-3216.2,1530-2166.7,1217.8-886.9c-46.8,191.2-105.3,579.4-105.3,694.5v56.6h682.8h682.8V-182.6z M4838.6-1150.3v-1014.4h-41c-81.9,0-425.3,78-552.1,126.8C3519.8-1764.8,2997-1154.2,2839-393.3c-15.6,78-29.3,169.7-29.3,201v56.6h1014.4h1014.4V-1150.3z M7191.3-227.5c-25.4-173.6-89.7-417.5-150.2-567.7c-288.7-721.8-993-1266.1-1757.7-1357.8l-113.1-13.7v1014.4v1016.4h1016.4H7203L7191.3-227.5z M8884.6-247c-46.8-540.4-179.5-1018.3-411.7-1474.8c-193.1-378.5-382.4-641.8-688.6-955.9c-663.3-686.7-1511.9-1084.7-2491.2-1172.5l-122.9-11.7v682.8v680.8l93.6,11.7c341.4,44.9,626.2,132.6,903.3,275.1c583.3,302.4,1026.1,823.2,1234.9,1453.4c58.5,177.5,80,278.9,120.9,559.9l9.8,62.4h680.8h680.8L8884.6-247z"></path></g></svg>