<svg width="512" height="512" xmlns="http://www.w3.org/2000/svg">
 

 
 <g>
<path stroke="#000" fill="#08f" stroke-width="0" stroke-opacity="null" fill-opacity="null" d="m253.240138,19.616077c-35.023392,62.372591 -84.332425,130.884599 -123.130803,187.746974l-107.771965,51.717842l92.486941,-5.510216l91.228613,-2.755108c22.649864,-35.357227 28.941494,-40.408249 40.266426,-60.612381l0.865093,-21.323394l0.865093,-21.32338l0.865094,-21.323394l0.865093,-21.323381l0.865093,-21.323394l0.865093,-21.323394l0.865093,-21.32338l0.865094,-21.323394l0.000042,0z" id="svg_8"/>
   <path stroke="#000" fill="#08f" stroke-width="0" stroke-opacity="null" fill-opacity="null" d="m22.919917,263.32118l182.422293,-7.632306l24.162586,107.768283l78.326539,129.466677l-91.213601,-37.497113l-70.013624,-77.520095l-123.259403,-113.328313l-0.424789,-1.257133z" id="svg_10"/>
  <path stroke="#000" fill="#08f" stroke-width="0" stroke-opacity="null" d="m258.292032,19.937006l-3.456516,170.573999l128.059541,74.773586l77.608409,8.82186l28.513121,-58.06889c-40.750521,18.975302 -36.923819,21.272574 -45.449578,20.108973c-12.977214,1.838515 -25.306544,-8.117344 -34.485236,-14.36641c-12.782441,-8.82186 -32.871038,-31.476 -52.344061,-54.665222l-98.683016,-147.177896l0.237336,0z" id="svg_11"/>
 </g>
</svg>